<svg xmlns="http://www.w3.org/2000/svg"><style>:root svg:not(:target){display:none}</style><svg viewBox="0 0 23 22" fill="none" id="bin-icon"><path d="M18.61 4.13h-15.12a.69.69 0 1 0 0 1.37h.68v12.38a1.38 1.38 0 0 0 1.38 1.37h11a1.38 1.38 0 0 0 1.37-1.38v-12.37h.7a.69.69 0 1 0 0-1.38Zm-2.06 13.75h-11v-12.38h11v12.38Zm-9.63-15.82a.69.69 0 0 1 .7-.69h6.87a.69.69 0 1 1 0 1.38h-6.88a.69.69 0 0 1-.69-.69Z" fill="#9E78CF"></path></svg><svg viewBox="0 0 23 22" fill="none" id="check-icon"><path d="m19.79 6.67-11 11a.69.69 0 0 1-.98 0l-4.81-4.8a.69.69 0 1 1 .97-.98l4.33 4.33 10.51-10.52a.69.69 0 0 1 .98.97Z" fill="#9E78CF"></path></svg><svg viewBox="0 0 24 24" fill="none" id="plus-icon"><path d="M24 12a1 1 0 0 1-1 1h-10v10a1 1 0 0 1-2 0v-10h-10a1 1 0 0 1 0-2h10v-10a1 1 0 0 1 2 0v10h10a1 1 0 0 1 1 1Z" fill="#fff"></path></svg></svg>