<svg xmlns="http://www.w3.org/2000/svg"><style>:root svg:not(:target){display:none}</style><svg fill="none" id="bin-icon" viewBox="0 0 23 22"><path d="M18.611 4.125H3.486a.687.687 0 1 0 0 1.375h.688v12.375a1.375 1.375 0 0 0 1.375 1.375h11a1.375 1.375 0 0 0 1.375-1.375V5.5h.687a.688.688 0 1 0 0-1.375Zm-2.062 13.75h-11V5.5h11v12.375ZM6.924 2.062a.687.687 0 0 1 .687-.687h6.875a.688.688 0 1 1 0 1.375H7.611a.687.687 0 0 1-.687-.688Z" fill="#9E78CF"></path></svg><svg fill="none" id="check-icon" viewBox="0 0 23 22"><path d="m19.785 6.674-11 11a.688.688 0 0 1-.973 0L3 12.86a.688.688 0 1 1 .973-.972l4.326 4.326L18.812 5.701a.688.688 0 0 1 .973.973Z" fill="#9E78CF"></path></svg><svg fill="none" id="plus-icon" viewBox="0 0 24 24"><path d="M24 12a1 1 0 0 1-1 1H13v10a1 1 0 0 1-2 0V13H1a1 1 0 0 1 0-2h10V1a1 1 0 0 1 2 0v10h10a1 1 0 0 1 1 1Z" fill="#fff"></path></svg></svg>